<svg id="Layer_1" data-name="Layer 1" xmlns="http://www.w3.org/2000/svg" viewBox="0 0 4096 4096"><defs><style>.cls-1{fill:#fff;}.cls-2{fill:#e73c7e;}.cls-3{fill:none;stroke:#e73c7e;stroke-miterlimit:10;stroke-width:16px;}</style></defs><title>Logo-SchoolVPN</title><path class="cls-1" d="M130.9,1855.65S240.31,2480,620.77,2970.86c484.66,625.32,1155,907.6,1432.33,1009.14,274.46-96.83,874.23-345.32,1333.55-888,318.87-376.78,468.73-856.55,520.89-1081.55l65.81-1329.75S3297.13,571.05,2888.44,438.84c-310.69-100.5-574-214.63-789-322.42-274.32,135.66-637.55,286.45-1084.9,403-329.21,85.79-631,134-887.66,161.21Z"/><path class="cls-2" d="M3223.7,2221.85c-85.82,180-235.43,448.38-499.33,704.89C2482.35,3162,2228.3,3315,2043.45,3409c-212.64-101.78-597-316.94-907.89-704.9C864.5,2365.86,727,1989.5,727,1989.5L273.07,1862.24S377.34,2438.48,727,2889.64c445.45,574.73,1061.51,834.17,1316.44,927.49,252.25-89,803.5-317.38,1225.65-816.19,293.07-346.29,436.05-793.26,484-1000.06C2754.41,1728.82,1725.69,1566.43,727,1294.36V1080a4086.46,4086.46,0,0,0,589.21-111.13c320.45-85.41,578.26-197,770.49-296.33,119.7,79.88,300.7,182.08,543.88,259.29C2946.4,1032.11,3227,1045.76,3401.09,1043c0,222.25-1.61,528.07-1.61,528.07l359,97,55.23-883.31S3192.28,684,2816.7,562.53c-285.53-92.36-527.54-197.25-725.12-296.3-252.1,124.67-585.91,263.25-997,370.38C792,715.45,514.67,759.78,278.8,784.76v741.47"/><path class="cls-3" d="M206.7,1865.54s104.78,597.88,469.12,1068c464.12,598.83,1106,869.15,1371.65,966.39,262.83-92.73,837.2-330.69,1277.06-850.42,305.36-360.82,448.87-820.27,498.82-1035.74l63-1273.42s-647.57-105-1039-231.57C2549.9,412.51,2297.72,303.21,2091.83,200c-262.7,129.91-610.54,274.31-1038.95,386-315.26,82.16-604.27,128.35-850,154.38Z"/></svg>